<?xml version="1.0" encoding="utf-8"?>
<!-- Generator: Adobe Illustrator 13.0.0, SVG Export Plug-In  -->
<!DOCTYPE svg PUBLIC "-//W3C//DTD SVG 1.1//EN" "http://www.w3.org/Graphics/SVG/1.1/DTD/svg11.dtd" [
	<!ENTITY ns_flows "http://ns.adobe.com/Flows/1.0/">
]>
<svg version="1.1"
	 xmlns="http://www.w3.org/2000/svg" xmlns:xlink="http://www.w3.org/1999/xlink" xmlns:a="http://ns.adobe.com/AdobeSVGViewerExtensions/3.0/"
	 x="0px" y="0px" width="100px" height="20px" viewBox="-7.133 -4.107 100 20" enable-background="new -7.133 -4.107 100 20"
	 xml:space="preserve">
<defs>
</defs>
<path fill="#46C3D3" d="M54.819,1.879C61.586,2.943,70.84,6.5,76.627,7.41c7.724,1.216,12.206-1.241,12.563-3.512
	c0.226-1.435-1.17-2.878-4.312-3.372c-5.455-0.858-8.934,1.86-9.231,3.751c-0.1,0.638,0.163,1.006,0.163,1.006
	c-0.006,0.039-0.051,0.051-0.218,0.025c-0.396-0.062-0.555-0.413-0.479-0.891c0.273-1.733,3.573-5.212,10.567-4.111
	c3.228,0.508,4.567,1.758,4.354,3.112c-0.528,3.364-6.394,5.788-14.845,4.458C71.108,7.235,62.011,4.03,55.224,2.963
	c-4.434-0.697-7.902-0.488-8.29,1.98c-0.238,1.514,1.329,3.351,4.244,3.81c1.728,0.271,3.383-0.223,3.635-1.815
	c0.104-0.657-0.306-1.312-1.346-1.477c-0.044-0.007-0.078-0.053-0.069-0.113c0.02-0.119,0.222-0.312,0.638-0.245
	c1.27,0.199,1.654,1.014,1.53,1.791c-0.296,1.89-2.571,2.513-4.799,2.162c-3.185-0.501-4.627-2.584-4.34-4.416
	C46.911,1.573,50.301,1.168,54.819,1.879z"/>
<path fill="#46C3D3" d="M43.629,4.544c0.286,1.833-1.155,3.916-4.341,4.417c-2.227,0.351-4.503-0.271-4.799-2.162
	c-0.123-0.777,0.263-1.592,1.533-1.792c0.416-0.065,0.617,0.127,0.635,0.246c0.009,0.061-0.027,0.107-0.067,0.113
	c-1.042,0.164-1.45,0.819-1.347,1.477c0.25,1.593,1.907,2.087,3.634,1.815c2.915-0.458,4.481-2.297,4.245-3.809
	c-0.389-2.47-3.857-2.679-8.292-1.981c-6.786,1.066-15.883,4.272-19.964,4.914C6.416,9.112,0.551,6.688,0.021,3.323
	C-0.191,1.97,1.148,0.719,4.375,0.211c6.996-1.101,10.295,2.38,10.567,4.111c0.075,0.479-0.083,0.829-0.479,0.892
	c-0.165,0.026-0.21,0.014-0.216-0.026c0,0,0.26-0.367,0.162-1.005c-0.298-1.892-3.776-4.608-9.23-3.751
	C2.035,0.927,0.64,2.369,0.865,3.804c0.358,2.27,4.839,4.727,12.563,3.512c5.789-0.91,15.042-4.467,21.808-5.531
	C39.755,1.073,43.146,1.479,43.629,4.544z"/>
<path fill="#FFDE00" d="M52.922,1.657c5.453,0.857,12.909,3.725,17.573,4.457c6.223,0.979,9.834-1.001,10.122-2.829
	c0.182-1.156-0.941-2.318-3.475-2.718c-4.395-0.691-7.196,1.499-7.437,3.023c-0.082,0.513,0.13,0.81,0.13,0.81
	c-0.005,0.032-0.041,0.042-0.175,0.021c-0.319-0.05-0.446-0.332-0.386-0.718c0.22-1.396,2.878-4.2,8.515-3.313
	c2.6,0.409,3.68,1.418,3.508,2.509c-0.427,2.711-5.152,4.663-11.963,3.593c-3.287-0.518-10.617-3.101-16.085-3.96
	c-3.573-0.563-6.368-0.394-6.681,1.596c-0.192,1.22,1.07,2.7,3.419,3.069c1.393,0.219,2.728-0.18,2.928-1.463
	c0.085-0.529-0.245-1.058-1.084-1.189c-0.033-0.005-0.062-0.042-0.054-0.092c0.015-0.096,0.177-0.25,0.513-0.197
	c1.022,0.16,1.333,0.817,1.233,1.443c-0.24,1.523-2.072,2.025-3.866,1.742c-2.566-0.403-3.729-2.082-3.497-3.559
	C46.55,1.411,49.283,1.085,52.922,1.657z"/>
<path fill="#FFDE00" d="M43.906,3.806c0.232,1.476-0.931,3.154-3.497,3.559c-1.795,0.282-3.628-0.219-3.867-1.743
	c-0.098-0.625,0.21-1.282,1.234-1.443c0.335-0.053,0.499,0.103,0.512,0.198c0.008,0.049-0.021,0.087-0.053,0.092
	c-0.84,0.132-1.169,0.659-1.086,1.189c0.202,1.283,1.536,1.682,2.93,1.463c2.347-0.369,3.61-1.85,3.419-3.069
	c-0.313-1.989-3.106-2.159-6.68-1.596C31.348,3.313,24.02,5.897,20.731,6.414C13.921,7.485,9.196,5.532,8.769,2.821
	c-0.17-1.091,0.908-2.099,3.509-2.508c5.636-0.887,8.293,1.918,8.514,3.313c0.061,0.385-0.066,0.667-0.385,0.718
	c-0.134,0.021-0.171,0.011-0.176-0.021c0,0,0.211-0.295,0.131-0.81c-0.24-1.523-3.042-3.714-7.438-3.022
	c-2.533,0.399-3.656,1.562-3.475,2.717c0.288,1.829,3.899,3.81,10.123,2.83c4.665-0.733,12.12-3.6,17.572-4.457
	C40.785,1.009,43.517,1.334,43.906,3.806z"/>
</svg>
